<svg width="169" height="169" viewBox="0 0 169 169" fill="none" xmlns="http://www.w3.org/2000/svg">
<path d="M11.9353 143.165V151.642H13.8908C13.7882 150.75 13.7882 149.849 13.8908 148.957C14.0765 147.96 16.2009 145.387 16.1367 143.178L11.9353 143.165Z" fill="#EBEBEB"/>
<path d="M27.5791 143.165V151.642H29.5346C29.432 150.75 29.432 149.849 29.5346 148.957C29.7203 147.96 31.8447 145.387 31.7805 143.178L27.5791 143.165Z" fill="#E0E0E0"/>
<path d="M42.8918 143.165V151.642H40.9329C41.0336 150.749 41.0336 149.849 40.9329 148.957C40.7438 147.96 38.6229 145.387 38.6837 143.178L42.8918 143.165Z" fill="#EBEBEB"/>
<path d="M56.4282 143.165V151.642H54.4727C54.5734 150.749 54.5734 149.849 54.4727 148.957C54.2869 147.96 52.1626 145.387 52.2268 143.178L56.4282 143.165Z" fill="#E0E0E0"/>
<path d="M57.4549 101.363H10.6047V143.435H57.4549V101.363Z" fill="#F5F5F5"/>
<path d="M44.834 101.363L45.1818 143.435H57.455V101.363H44.834Z" fill="#E0E0E0"/>
<path d="M42.7908 104.46H12.7124V115.167H42.7908V104.46Z" fill="#EBEBEB"/>
<path d="M42.7908 117.298H12.7124V128.004H42.7908V117.298Z" fill="#EBEBEB"/>
<path d="M42.7908 130.138H12.7124V140.844H42.7908V130.138Z" fill="#EBEBEB"/>
<path d="M24.2422 89.2761L22.9453 101.316H39.5685L40.9464 89.2761H24.2422Z" fill="#E0E0E0"/>
<path d="M24.9282 90.1407L23.665 100.675H38.6671L39.8795 90.1407H24.9282Z" fill="white"/>
<path d="M27.4509 91.9138L26.6741 98.9048H36.1407L36.627 91.9138H27.4509Z" fill="#EBEBEB"/>
<path d="M40.3521 94.4603L43.7869 101.363L39.5686 101.316L40.3521 94.4603Z" fill="#EBEBEB"/>
<path d="M28.8524 110.371C28.8531 110.589 28.7891 110.802 28.6685 110.983C28.5479 111.165 28.3762 111.307 28.1751 111.39C27.974 111.474 27.7525 111.497 27.5387 111.454C27.3249 111.412 27.1284 111.308 26.9741 111.154C26.8197 111 26.7146 110.804 26.6718 110.59C26.629 110.377 26.6506 110.155 26.7339 109.954C26.8171 109.752 26.9582 109.58 27.1394 109.459C27.3205 109.338 27.5335 109.273 27.7514 109.273C28.0428 109.273 28.3223 109.389 28.5287 109.594C28.7351 109.8 28.8515 110.079 28.8524 110.371Z" fill="#E0E0E0"/>
<path d="M28.8524 123.34C28.8524 123.557 28.7878 123.77 28.6669 123.951C28.5459 124.132 28.3739 124.274 28.1727 124.357C27.9716 124.44 27.7502 124.462 27.5366 124.42C27.323 124.377 27.1268 124.272 26.9729 124.118C26.8189 123.964 26.714 123.768 26.6715 123.555C26.6291 123.341 26.6509 123.12 26.7342 122.918C26.8175 122.717 26.9587 122.545 27.1397 122.424C27.3208 122.303 27.5336 122.239 27.7514 122.239C27.8961 122.238 28.0395 122.266 28.1733 122.322C28.307 122.377 28.4286 122.458 28.5309 122.56C28.6332 122.663 28.7143 122.784 28.7695 122.918C28.8247 123.052 28.8528 123.195 28.8524 123.34Z" fill="#E0E0E0"/>
<path d="M28.8524 136.305C28.8524 136.523 28.7878 136.736 28.6669 136.917C28.5459 137.098 28.3739 137.239 28.1727 137.322C27.9716 137.406 27.7502 137.428 27.5366 137.385C27.323 137.343 27.1268 137.238 26.9729 137.084C26.8189 136.93 26.714 136.734 26.6715 136.52C26.6291 136.306 26.6509 136.085 26.7342 135.884C26.8175 135.683 26.9587 135.511 27.1397 135.39C27.3208 135.269 27.5336 135.204 27.7514 135.204C28.0434 135.204 28.3234 135.32 28.5299 135.527C28.7364 135.733 28.8524 136.013 28.8524 136.305Z" fill="#E0E0E0"/>
<path d="M42.7435 32.9728L16.1809 32.7161L16.9205 67.3336L43.4832 67.4316L42.7435 32.9728Z" fill="#E0E0E0"/>
<path d="M41.0309 34.5162L17.7781 33.9151L18.4502 65.3106L41.6963 65.5977L41.0309 34.5162Z" fill="#FAFAFA"/>
<path d="M37.0626 39.2073L21.6316 38.9506L22.1044 60.8965L37.5185 60.5655L37.0626 39.2073Z" fill="#EBEBEB"/>
<path d="M22.1044 60.8965L37.2787 49.292L21.6316 38.9506L22.1044 60.8965Z" fill="#F5F5F5"/>
<path d="M157.049 14.9278L133.742 14.7015L134.394 45.0737L157.694 45.1582L157.049 14.9278Z" fill="#E0E0E0"/>
<path d="M155.542 16.2854L135.143 15.7552L135.734 43.2972L156.127 43.5472L155.542 16.2854Z" fill="#FAFAFA"/>
<path d="M152.06 20.399L138.527 20.1727L138.939 39.4235L152.462 39.1364L152.06 20.399Z" fill="#EBEBEB"/>
<path d="M138.939 39.4235L152.253 29.2442L138.527 20.1727L138.939 39.4235Z" fill="#F5F5F5"/>
<path d="M130.942 129.115C130.844 129.412 134.319 142.624 134.319 142.624L136.704 142.128L133.424 129.115H130.942Z" fill="#EBEBEB"/>
<path d="M149.419 127.227L144.651 142.624H147.434L152.003 128.321L149.419 127.227Z" fill="#F5F5F5"/>
<path d="M153.79 124.843L148.325 142.624H151.108L156.373 125.937L153.79 124.843Z" fill="#EBEBEB"/>
<path d="M132.631 141.533L135.414 151.169H149.42L152.003 141.533H132.631Z" fill="#E0E0E0"/>
<path d="M139.855 141.533C139.843 141.5 139.833 141.466 139.824 141.432L139.75 141.138C139.686 140.868 139.598 140.486 139.483 140L138.521 135.792L135.376 121.759L135.461 121.83H133.009L133.093 121.722C134.34 127.244 135.458 132.192 136.258 135.765C136.65 137.545 136.967 138.98 137.19 139.987C137.291 140.476 137.376 140.858 137.433 141.131C137.457 141.256 137.477 141.354 137.491 141.429C137.496 141.463 137.496 141.499 137.491 141.533C137.479 141.5 137.468 141.466 137.46 141.432C137.44 141.358 137.416 141.26 137.386 141.138C137.318 140.868 137.227 140.486 137.109 140C136.876 138.987 136.542 137.565 136.126 135.792C135.306 132.219 134.174 127.278 132.911 121.759L132.884 121.654H135.518L135.535 121.722C136.748 127.244 137.839 132.192 138.625 135.765C139.007 137.545 139.318 138.98 139.534 139.987C139.635 140.476 139.713 140.858 139.77 141.131L139.828 141.429C139.842 141.462 139.852 141.497 139.855 141.533Z" fill="#E0E0E0"/>
<path d="M153.543 151.571C153.543 151.618 121.479 151.659 81.9439 151.659C42.409 151.659 10.3447 151.618 10.3447 151.571C10.3447 151.523 42.4022 151.483 81.9608 151.483C121.519 151.483 153.543 151.523 153.543 151.571Z" fill="#263238"/>
<path d="M144.323 59.3902C144.246 59.3576 144.165 59.3327 144.083 59.3159C143.842 59.2615 143.592 59.2615 143.35 59.3159C142.959 59.4165 142.596 59.6034 142.286 59.863C141.866 60.2271 141.502 60.6517 141.206 61.1227C140.513 62.1832 139.97 63.649 139.335 65.3579C138.6 67.3093 137.964 69.2966 137.43 71.3121C137.33 71.498 137.198 71.664 137.038 71.8018C136.956 71.8768 136.858 71.9331 136.752 71.9669C136.646 72.0007 136.534 72.0112 136.423 71.9977C136.206 71.9425 136.01 71.8251 135.859 71.66C135.701 71.5147 135.552 71.3594 135.403 71.2007C135.11 70.8782 134.798 70.5737 134.468 70.2888C134.149 69.9821 133.725 69.8092 133.282 69.8058C133.061 69.8435 132.85 69.9274 132.664 70.0519C132.477 70.1764 132.318 70.3388 132.198 70.5286C131.959 70.9388 131.829 71.4043 131.823 71.8795C131.766 72.8454 132.046 73.8215 132.215 74.8313C132.384 75.8411 132.597 76.8779 132.793 77.935C132.894 78.4653 132.992 78.9989 133.093 79.5392L133.245 80.3566C133.292 80.4993 133.307 80.6503 133.29 80.7995C133.273 80.9486 133.225 81.0924 133.147 81.2212C133.097 81.2889 133.027 81.3397 132.946 81.3668C132.866 81.394 132.78 81.3962 132.698 81.3731C132.552 81.3307 132.416 81.2608 132.296 81.1671L131.621 80.6538C131.161 80.3064 130.683 79.9839 130.189 79.6879C129.694 79.3799 129.154 79.152 128.588 79.0124C128.308 78.9465 128.017 78.9465 127.737 79.0124C127.458 79.0828 127.212 79.2475 127.041 79.4785C126.716 79.9797 126.557 80.5704 126.585 81.1671C126.586 81.7816 126.646 82.3946 126.764 82.9976C127.008 84.2372 127.352 85.4549 127.794 86.6384C127.923 86.9409 128.021 87.2554 128.088 87.5773C128.104 87.6684 128.102 87.7619 128.08 87.852C128.059 87.9421 128.019 88.0267 127.963 88.1007C127.933 88.1359 127.9 88.1686 127.865 88.1987C127.827 88.2331 127.782 88.2596 127.734 88.2764C127.631 88.2918 127.526 88.2677 127.44 88.2088C127.159 88.0288 126.898 87.8206 126.66 87.5874L125.937 86.9119C125.463 86.4537 124.949 86.0399 124.4 85.6758C124.127 85.496 123.827 85.3594 123.512 85.2706C123.362 85.2241 123.204 85.21 123.049 85.2293C122.894 85.2485 122.744 85.3005 122.61 85.382C122.349 85.5714 122.168 85.8504 122.1 86.1656C122.019 86.488 121.978 86.8192 121.979 87.1517C121.982 87.8349 122.067 88.5152 122.232 89.1781C122.566 90.5254 123.059 91.8282 123.701 93.0587C124.34 94.3203 125.071 95.5337 125.886 96.6893C126.294 97.2756 126.734 97.8393 127.203 98.3779C127.656 98.9386 128.115 99.4958 128.574 100.067V100.087L128.493 100.053L130.641 99.7424C131.353 99.6576 132.06 99.5358 132.759 99.3776C134.137 99.0676 135.491 98.6602 136.812 98.1584C138.114 97.6767 139.356 97.043 140.51 96.2705C141.077 95.8953 141.595 95.4518 142.053 94.95C142.279 94.7041 142.473 94.4306 142.631 94.136C142.792 93.8574 142.845 93.5292 142.779 93.214C142.736 93.0631 142.661 92.9233 142.559 92.8039C142.457 92.6845 142.331 92.5883 142.188 92.5217C141.895 92.3782 141.582 92.2781 141.26 92.2245C140.608 92.1259 139.949 92.0864 139.291 92.1063H138.305C137.965 92.1195 137.626 92.098 137.291 92.0421C137.188 92.0287 137.093 91.9754 137.028 91.8935C137.003 91.8475 136.988 91.7969 136.984 91.7449C136.979 91.6989 136.979 91.6524 136.984 91.6064C136.994 91.5149 137.023 91.4263 137.067 91.3457C137.112 91.2652 137.172 91.1942 137.244 91.137C137.51 90.9445 137.794 90.7782 138.092 90.6405C139.216 90.0626 140.29 89.3927 141.304 88.6378C141.794 88.272 142.247 87.8579 142.655 87.4017C143.076 86.9799 143.355 86.4366 143.452 85.8481C143.48 85.5615 143.408 85.274 143.249 85.0341C143.087 84.7962 142.872 84.5995 142.621 84.46C142.111 84.1799 141.561 83.9827 140.989 83.8757C140.425 83.7619 139.854 83.6796 139.281 83.6292L138.429 83.5481C138.278 83.5394 138.129 83.4992 137.994 83.4299C137.918 83.391 137.856 83.3302 137.816 83.2555C137.776 83.1807 137.759 83.0956 137.768 83.0111C137.799 82.8648 137.86 82.7267 137.948 82.6057C138.036 82.4847 138.148 82.3835 138.278 82.3087L138.953 81.8088L140.253 80.8193L142.766 78.9111C143.573 78.2795 144.434 77.7459 145.042 76.9894C145.353 76.6357 145.567 76.2075 145.664 75.7465C145.703 75.525 145.695 75.2976 145.64 75.0794C145.586 74.8611 145.485 74.6569 145.346 74.48C145.199 74.3171 145.008 74.1999 144.796 74.1423C144.584 74.0793 144.365 74.043 144.144 74.0342C143.709 74.0228 143.273 74.0386 142.84 74.0815C142.624 74.0815 142.408 74.1119 142.195 74.1153C141.974 74.1319 141.752 74.0838 141.557 73.9768C141.464 73.9138 141.385 73.8313 141.327 73.7351C141.269 73.6389 141.232 73.5313 141.219 73.4195C141.194 73.2096 141.207 72.9969 141.256 72.7914C142.223 70.96 143.097 69.0809 143.874 67.1614C144.549 65.4727 145.133 64.0205 145.343 62.7709C145.445 62.2254 145.468 61.668 145.41 61.116C145.367 60.7147 145.231 60.3288 145.015 59.9879C144.884 59.7794 144.706 59.6047 144.495 59.478C144.423 59.434 144.348 59.3967 144.269 59.3665C144.351 59.3885 144.429 59.4215 144.502 59.4645C144.719 59.5887 144.904 59.7622 145.042 59.9711C145.263 60.3147 145.402 60.7038 145.451 61.1092C145.517 61.6659 145.5 62.2293 145.4 62.781C145.198 64.034 144.623 65.4828 143.951 67.1715C143.191 69.113 142.332 71.0147 141.378 72.869C141.331 73.059 141.32 73.2559 141.344 73.4499C141.353 73.5455 141.383 73.638 141.431 73.7213C141.478 73.8046 141.543 73.8767 141.621 73.9329C141.797 74.0262 141.996 74.0672 142.195 74.0511C142.405 74.0511 142.617 74.0308 142.834 74.014C143.272 73.9697 143.713 73.9528 144.154 73.9633C144.383 73.9724 144.61 74.0098 144.83 74.0747C145.062 74.1366 145.272 74.2617 145.437 74.4361C145.585 74.6254 145.691 74.8433 145.749 75.0759C145.807 75.3086 145.816 75.5508 145.775 75.787C145.677 76.2709 145.453 76.7205 145.127 77.0907C144.502 77.8675 143.634 78.4078 142.834 79.0428L140.324 80.9543L139.027 81.9405L138.369 82.4437C138.257 82.5181 138.156 82.6067 138.068 82.7072C137.987 82.8037 137.933 82.9204 137.913 83.0449C137.907 83.1011 137.918 83.1577 137.945 83.2072C137.973 83.2567 138.014 83.2967 138.065 83.3219C138.184 83.3797 138.314 83.413 138.446 83.4198L139.297 83.5008C139.876 83.5501 140.451 83.6324 141.02 83.7474C141.611 83.8563 142.181 84.0581 142.709 84.3452C142.978 84.5 143.209 84.7136 143.384 84.97C143.56 85.2386 143.641 85.5585 143.614 85.8785C143.513 86.5011 143.222 87.0771 142.779 87.5266C142.36 87.9906 141.896 88.4125 141.395 88.7864C140.375 89.5489 139.294 90.2266 138.163 90.8127C137.875 90.9431 137.602 91.1014 137.345 91.2856C137.289 91.3286 137.242 91.3825 137.208 91.444C137.173 91.5055 137.151 91.5734 137.143 91.6436C137.139 91.6773 137.139 91.7112 137.143 91.7449C137.143 91.7719 137.143 91.8361 137.166 91.8327C137.21 91.8715 137.264 91.8963 137.322 91.9036C137.639 91.9549 137.96 91.9752 138.281 91.9644H139.267C139.936 91.9401 140.605 91.9797 141.266 92.0826C141.607 92.1357 141.938 92.2417 142.246 92.3967C142.409 92.4746 142.553 92.5863 142.67 92.7243C142.786 92.8623 142.872 93.0234 142.921 93.1971C142.998 93.552 142.94 93.9226 142.759 94.2373C142.596 94.5445 142.394 94.8295 142.158 95.0851C141.691 95.5982 141.162 96.0519 140.584 96.436C139.42 97.2192 138.166 97.8598 136.849 98.3442C135.518 98.8518 134.152 99.2626 132.762 99.5735C132.061 99.7325 131.352 99.8543 130.638 99.9383L128.487 100.252H128.436L128.406 100.212H128.389L127.018 98.5232C126.548 97.9835 126.108 97.4199 125.697 96.8345C124.875 95.6704 124.139 94.4479 123.495 93.1769C122.85 91.9329 122.354 90.6166 122.019 89.2558C121.848 88.5835 121.761 87.8927 121.759 87.199C121.759 86.8506 121.803 86.5035 121.887 86.1656C121.967 85.8116 122.174 85.4992 122.468 85.2874C122.622 85.1923 122.794 85.1311 122.974 85.1078C123.153 85.0845 123.335 85.0997 123.508 85.1524C123.839 85.246 124.153 85.3895 124.441 85.5779C124.999 85.9471 125.521 86.3677 126.001 86.8343L126.724 87.5097C126.954 87.7329 127.205 87.9331 127.473 88.1075C127.522 88.1422 127.58 88.1611 127.639 88.1616C127.639 88.1616 127.69 88.1311 127.713 88.1143L127.788 88.04C127.828 87.983 127.857 87.9183 127.872 87.8497C127.888 87.7812 127.889 87.7104 127.875 87.6414C127.811 87.3321 127.716 87.03 127.592 86.7397C127.148 85.5474 126.802 84.3207 126.558 83.0719C126.438 82.4589 126.378 81.8357 126.379 81.211C126.352 80.5796 126.525 79.9558 126.872 79.4278C127.065 79.1714 127.339 78.9881 127.649 78.9077C127.952 78.8368 128.268 78.8368 128.571 78.9077C129.151 79.045 129.707 79.2729 130.216 79.5832C130.716 79.8802 131.199 80.2061 131.661 80.5592L132.337 81.0726C132.437 81.154 132.552 81.2169 132.675 81.2583C132.729 81.2742 132.787 81.2731 132.841 81.2549C132.895 81.2368 132.941 81.2026 132.975 81.157C133.042 81.0564 133.08 80.9398 133.087 80.8193C133.09 80.685 133.075 80.551 133.043 80.4207C132.992 80.1472 132.945 79.877 132.894 79.6068C132.793 79.0664 132.695 78.5294 132.597 78.0026C132.404 76.9421 132.212 75.9086 132.026 74.8988C131.84 73.889 131.58 72.9096 131.638 71.9133C131.648 71.4195 131.785 70.9368 132.036 70.5117C132.166 70.306 132.339 70.1304 132.542 69.9964C132.745 69.8625 132.975 69.7734 133.215 69.7349C133.454 69.7152 133.694 69.7632 133.907 69.8734C134.115 69.9739 134.309 70.0998 134.485 70.2482C134.819 70.5368 135.135 70.8459 135.43 71.1736C135.575 71.3312 135.723 71.4832 135.876 71.6296C136.014 71.7752 136.189 71.8793 136.383 71.9301C136.478 71.9408 136.575 71.931 136.667 71.9013C136.758 71.8716 136.842 71.8227 136.913 71.7579C137.061 71.6303 137.185 71.477 137.278 71.3053C137.819 69.2865 138.464 67.2968 139.21 65.3444C139.851 63.6388 140.405 62.1697 141.111 61.1092C141.413 60.6355 141.784 60.2097 142.212 59.8461C142.527 59.585 142.898 59.4001 143.296 59.3057C143.541 59.2481 143.795 59.2481 144.039 59.3057C144.138 59.3176 144.234 59.3461 144.323 59.3902Z" fill="#263238"/>
<path d="M142.55 63.9833C142.544 64.0219 142.533 64.0594 142.516 64.0948L142.401 64.4122C142.29 64.6993 142.135 65.108 141.939 65.6247C141.527 66.6886 140.942 68.2117 140.22 70.0861L134.61 84.8248C132.428 90.5662 130.429 95.7909 128.95 99.5465C128.213 101.424 127.599 102.941 127.18 103.988C126.97 104.501 126.805 104.903 126.687 105.187C126.629 105.318 126.589 105.42 126.555 105.501L126.504 105.602C126.511 105.565 126.522 105.528 126.538 105.494C126.565 105.413 126.606 105.308 126.653 105.176C126.764 104.886 126.92 104.481 127.116 103.961C127.528 102.897 128.112 101.377 128.835 99.5026L134.444 84.7707C136.626 79.0124 138.622 73.8079 140.105 70.0524C140.841 68.1746 141.456 66.6548 141.875 65.6112C142.084 65.0978 142.249 64.6926 142.368 64.4089C142.425 64.2805 142.466 64.1758 142.499 64.0981L142.55 63.9833Z" fill="#263238"/>
<path d="M142.732 75.6519C142.466 75.8431 142.183 76.0114 141.888 76.1552L139.821 77.3035C139.011 77.7526 138.274 78.1545 137.731 78.4281C137.445 78.5903 137.142 78.7217 136.829 78.8199C137.098 78.6322 137.38 78.464 137.673 78.3167L139.733 77.1515C140.544 76.7023 141.284 76.3105 141.831 76.0437C142.118 75.8847 142.42 75.7535 142.732 75.6519Z" fill="#263238"/>
<path d="M136.555 78.6037C136.511 78.624 135.707 77.0907 134.762 75.1791C133.816 73.2676 133.073 71.7005 133.124 71.6768C133.174 71.6532 133.971 73.1899 134.921 75.1014C135.87 77.013 136.599 78.5801 136.555 78.6037Z" fill="#263238"/>
<path d="M133.603 87.5975C133.334 87.3981 133.085 87.1718 132.86 86.9221C132.421 86.483 131.847 85.8582 131.222 85.1355C130.598 84.4127 130.091 83.7305 129.733 83.2239C129.522 82.9624 129.34 82.6794 129.189 82.3796C129.421 82.6207 129.636 82.878 129.831 83.1496C130.216 83.6359 130.746 84.3013 131.357 85.0206C131.969 85.74 132.536 86.3716 132.948 86.8343C133.185 87.0719 133.404 87.327 133.603 87.5975Z" fill="#263238"/>
<path d="M139.78 86.1453C139.492 86.2606 139.194 86.3488 138.889 86.4087C138.335 86.5472 137.565 86.7262 136.714 86.9153C135.863 87.1045 135.086 87.253 134.525 87.3746C134.224 87.4505 133.917 87.4969 133.607 87.5131C133.895 87.3988 134.194 87.3117 134.498 87.2531C135.052 87.1146 135.822 86.9153 136.677 86.7431C137.531 86.5708 138.301 86.4053 138.862 86.2871C139.163 86.2117 139.471 86.1642 139.78 86.1453Z" fill="#263238"/>
<path d="M138.183 94.4197C137.808 94.5495 137.424 94.6522 137.035 94.7271C136.319 94.8925 135.346 95.1121 134.238 95.3417C133.131 95.5714 132.148 95.774 131.429 95.9091C131.043 96.0011 130.651 96.0632 130.257 96.0949C130.631 95.9639 131.015 95.8612 131.405 95.7875C132.117 95.622 133.094 95.4025 134.201 95.1729C135.309 94.9432 136.288 94.7406 137.008 94.6055C137.394 94.5133 137.787 94.4512 138.183 94.4197Z" fill="#263238"/>
<path d="M130.432 96.0003C130.338 95.9351 130.253 95.8579 130.179 95.7707C130.024 95.6153 129.808 95.3856 129.541 95.0952C129.011 94.5143 128.298 93.6936 127.548 92.7581C126.798 91.8226 126.153 90.9445 125.704 90.2994C125.478 89.9785 125.302 89.7151 125.184 89.5294C125.114 89.4378 125.057 89.3366 125.015 89.2288C125.1 89.3061 125.175 89.3934 125.238 89.4888L125.805 90.2285C126.278 90.8533 126.937 91.7145 127.687 92.6466C128.436 93.5788 129.129 94.413 129.635 95.0108C129.922 95.3228 130.189 95.6533 130.432 96.0003Z" fill="#263238"/>
<path d="M127.055 118.625C121.192 113.897 120.341 105.815 121.077 98.6515C121.202 97.4559 121.155 96.1827 121.796 95.1695C122.438 94.1563 123.823 93.5315 124.86 94.109C125.721 94.5886 126.035 95.6524 126.474 96.5407C127.062 97.728 127.972 98.7254 129.102 99.4181C129.838 99.8673 130.767 100.175 131.547 99.8099C132.621 99.3101 132.84 97.8916 132.915 96.6994L133.33 90.0326C133.404 88.837 133.485 87.6212 133.935 86.5168C134.384 85.4124 135.285 84.4161 136.43 84.1729C137.575 83.9298 138.943 84.6863 139.102 85.8616C139.113 86.3579 139.09 86.8544 139.034 87.3476C139.034 87.8441 139.227 88.4081 139.686 88.577C140.145 88.7458 140.652 88.4452 141.037 88.121C142.351 87.0031 143.29 85.5103 144.178 84.021C145.066 82.5316 145.927 81.005 147.136 79.7689C148.346 78.5328 149.957 77.5973 151.672 77.6176C153.388 77.6378 155.131 78.8165 155.448 80.522C155.766 82.2276 154.668 83.8723 153.506 85.1591C151.781 87.0721 149.788 88.7251 147.589 90.0664C147.16 90.26 146.804 90.5869 146.576 90.9985C146.262 91.7753 146.961 92.6162 147.728 92.9337C148.595 93.2883 149.568 93.2714 150.49 93.4369C151.412 93.6024 152.392 94.0887 152.682 94.9905C153.087 96.2435 151.98 97.4492 150.919 98.2192C148.805 99.7554 146.444 100.918 143.938 101.657C143.036 101.917 142.094 102.134 141.344 102.701C140.595 103.268 140.095 104.312 140.466 105.18C140.838 106.048 141.915 106.396 142.83 106.288C143.746 106.18 144.617 105.737 145.515 105.467C147.204 104.96 149.305 105.22 150.244 106.706C150.868 107.686 150.841 108.986 150.416 110.084C149.941 111.15 149.258 112.11 148.406 112.907C145.596 115.849 142.056 117.991 138.146 119.115C134.255 120.172 130.716 120.287 127.028 118.645" fill="#8B47E0"/>
<g opacity="0.1">
<path d="M127.055 118.625C121.192 113.897 120.341 105.815 121.077 98.6515C121.202 97.4559 121.155 96.1827 121.796 95.1695C122.438 94.1563 123.823 93.5315 124.86 94.109C125.721 94.5886 126.035 95.6524 126.474 96.5407C127.062 97.728 127.972 98.7254 129.102 99.4181C129.838 99.8673 130.767 100.175 131.547 99.8099C132.621 99.3101 132.84 97.8916 132.915 96.6994L133.33 90.0326C133.404 88.837 133.485 87.6212 133.935 86.5168C134.384 85.4124 135.285 84.4161 136.43 84.1729C137.575 83.9298 138.943 84.6863 139.102 85.8616C139.113 86.3579 139.09 86.8544 139.034 87.3476C139.034 87.8441 139.227 88.4081 139.686 88.577C140.145 88.7458 140.652 88.4452 141.037 88.121C142.351 87.0031 143.29 85.5103 144.178 84.021C145.066 82.5316 145.927 81.005 147.136 79.7689C148.346 78.5328 149.957 77.5973 151.672 77.6176C153.388 77.6378 155.131 78.8165 155.448 80.522C155.766 82.2276 154.668 83.8723 153.506 85.1591C151.781 87.0721 149.788 88.7251 147.589 90.0664C147.16 90.26 146.804 90.5869 146.576 90.9985C146.262 91.7753 146.961 92.6162 147.728 92.9337C148.595 93.2883 149.568 93.2714 150.49 93.4369C151.412 93.6024 152.392 94.0887 152.682 94.9905C153.087 96.2435 151.98 97.4492 150.919 98.2192C148.805 99.7554 146.444 100.918 143.938 101.657C143.036 101.917 142.094 102.134 141.344 102.701C140.595 103.268 140.095 104.312 140.466 105.18C140.838 106.048 141.915 106.396 142.83 106.288C143.746 106.18 144.617 105.737 145.515 105.467C147.204 104.96 149.305 105.22 150.244 106.706C150.868 107.686 150.841 108.986 150.416 110.084C149.941 111.15 149.258 112.11 148.406 112.907C145.596 115.849 142.056 117.991 138.146 119.115C134.255 120.172 130.716 120.287 127.028 118.645" fill="#0B0909"/>
</g>
<path d="M126.595 123.948C127.158 120.642 128.036 117.397 129.216 114.258C130.677 110.429 132.356 106.686 134.245 103.049L135.714 100.178C136.201 99.2358 136.68 98.3036 137.207 97.4188C138.221 95.725 139.327 94.0879 140.52 92.5149C141.652 91.0052 142.776 89.6138 143.84 88.3203C144.904 87.0268 145.924 85.8447 146.897 84.8045C148.424 83.1556 150.08 81.6299 151.848 80.2417C152.472 79.752 152.969 79.3873 153.31 79.1441L153.698 78.8705C153.741 78.838 153.786 78.8086 153.834 78.7827C153.798 78.8231 153.757 78.8584 153.712 78.8874L153.337 79.1813C152.999 79.4346 152.516 79.8094 151.902 80.3127C150.159 81.7213 148.524 83.2589 147.011 84.9126C146.049 85.9562 145.039 87.145 143.972 88.4385C142.905 89.732 141.793 91.1403 140.672 92.6399C139.486 94.2076 138.387 95.8403 137.383 97.5302C136.859 98.4117 136.369 99.3371 135.9 100.279L134.431 103.15C132.547 106.78 130.866 110.512 129.395 114.329C128.211 117.454 127.321 120.684 126.737 123.975" fill="#263238"/>
<path d="M137.271 97.4086C137.224 97.2402 137.195 97.0668 137.187 96.8919C137.15 96.5542 137.106 96.0746 137.062 95.4734C136.977 94.2779 136.913 92.6162 136.849 90.7891C136.785 88.962 136.697 87.3037 136.592 86.1081C136.542 85.5137 136.498 85.0308 136.461 84.6964C136.43 84.5237 136.42 84.348 136.43 84.1729C136.485 84.3387 136.524 84.5095 136.545 84.6829C136.606 85.0206 136.677 85.4968 136.748 86.0946C136.893 87.2868 137.004 88.9451 137.086 90.779C137.167 92.6129 137.197 94.2171 137.234 95.4667C137.258 96.0307 137.275 96.5035 137.292 96.8852C137.302 97.0599 137.295 97.2352 137.271 97.4086Z" fill="#263238"/>
<path d="M152.793 95.595C152.589 95.627 152.382 95.6383 152.175 95.6288C151.78 95.6288 151.209 95.6288 150.487 95.6761C149.075 95.7335 147.109 95.8753 144.978 96.132C142.847 96.3887 140.902 96.7028 139.51 96.973C138.815 97.1013 138.254 97.2229 137.865 97.3107C137.666 97.3634 137.463 97.3984 137.258 97.4154C137.448 97.3352 137.644 97.2719 137.845 97.2263C138.227 97.1182 138.784 96.9763 139.48 96.8244C140.865 96.517 142.8 96.1759 144.951 95.9159C146.787 95.6918 148.634 95.5622 150.483 95.5275C151.192 95.5275 151.767 95.5275 152.172 95.5477C152.38 95.5451 152.588 95.5609 152.793 95.595Z" fill="#263238"/>
<path d="M129.426 113.981C129.386 113.922 129.355 113.857 129.335 113.789L129.108 113.214C128.916 112.718 128.656 111.989 128.348 111.087C127.73 109.28 126.954 106.757 126.133 103.964C125.312 101.171 124.562 98.6414 123.981 96.8244C123.698 95.9395 123.461 95.2134 123.289 94.673L123.103 94.0887C123.077 94.0216 123.06 93.9511 123.053 93.8793C123.091 93.9394 123.122 94.0041 123.144 94.0718C123.205 94.2272 123.279 94.4096 123.367 94.646C123.559 95.1424 123.819 95.872 124.13 96.7737C124.748 98.5806 125.525 101.103 126.342 103.9C127.16 106.696 127.916 109.219 128.497 111.036C128.781 111.921 129.014 112.647 129.172 113.187L129.358 113.772C129.39 113.838 129.413 113.909 129.426 113.981Z" fill="#263238"/>
<path d="M150.243 108.814C150.178 108.849 150.107 108.873 150.034 108.885L149.429 109.043L147.2 109.601C145.316 110.07 142.725 110.749 139.861 111.506C136.997 112.262 134.397 112.917 132.502 113.35C131.557 113.566 130.79 113.735 130.256 113.839L129.642 113.958C129.571 113.975 129.498 113.983 129.426 113.981C129.491 113.95 129.56 113.927 129.632 113.914L130.239 113.755L132.469 113.198C134.35 112.728 136.943 112.046 139.807 111.289C142.671 110.533 145.272 109.878 147.163 109.445C148.109 109.229 148.879 109.064 149.409 108.959L150.024 108.841C150.096 108.823 150.169 108.814 150.243 108.814Z" fill="#263238"/>
<path d="M128.419 25.3941H46.5159V137.622H128.419V25.3941Z" fill="#455A64"/>
<path d="M125.18 130.949H110.013H53.3381V29.9298H125.18V118.382V130.949Z" fill="#E0E0E0"/>
<path d="M124.045 129.074H109.013H52.8481V28.5958H124.045V116.575V129.074Z" fill="#EBEBEB"/>
<path d="M116.396 121.256L108.196 127.933H51.521V28.8491H123.363V115.606L116.396 121.256Z" fill="#FAFAFA"/>
<path d="M116.396 121.246C116.396 121.246 116.541 121.121 116.835 120.881L118.149 119.807L123.346 115.575V115.596C123.346 101.343 123.319 69.664 123.296 28.8389L123.373 28.92H52.1559H51.5311L51.6189 28.8322C51.6189 66.084 51.6189 100.448 51.5986 127.916L51.5311 127.845L108.206 127.886H108.186L114.346 122.891L115.889 121.644C116.227 121.367 116.406 121.232 116.406 121.232L115.899 121.654L114.356 122.934L108.216 127.953L51.5209 128H51.45V127.929C51.45 100.462 51.45 66.0975 51.4331 28.8457V28.7579H52.1457H123.363H123.444V28.8356C123.421 69.6741 123.4 101.34 123.394 115.592L118.176 119.804L116.855 120.908L116.396 121.246Z" fill="#263238"/>
<path d="M77.7493 21.9256H97.3884C98.6559 21.9256 99.8714 22.429 100.768 23.3253C101.664 24.2215 102.167 25.437 102.167 26.7045V32.0035H72.7644V26.9071C72.7653 25.5856 73.2909 24.3185 74.2257 23.3844C75.1604 22.4503 76.4278 21.9256 77.7493 21.9256Z" fill="#8B47E0"/>
<path d="M79.9683 21.9256L78.8943 16.4881H95.8248L94.8825 21.9256H79.9683Z" fill="#8B47E0"/>
<path d="M71.1366 56.739H59.0356V44.6346H71.1366V56.739ZM59.3734 56.4012H70.7988V44.9724H59.3734V56.4012Z" fill="#8B47E0"/>
<path d="M113.91 47.5594C113.91 47.6067 105.484 47.6472 95.0953 47.6472C84.7066 47.6472 76.2769 47.6067 76.2769 47.5594C76.2769 47.5121 84.6999 47.4716 95.0953 47.4716C105.491 47.4716 113.91 47.5088 113.91 47.5594Z" fill="#263238"/>
<path d="M113.91 50.0721C113.91 50.1228 105.484 50.1599 95.0953 50.1599C84.7066 50.1599 76.2769 50.1228 76.2769 50.0721C76.2769 50.0215 84.6999 49.9843 95.0953 49.9843C105.491 49.9843 113.91 50.0248 113.91 50.0721Z" fill="#263238"/>
<path d="M113.91 52.5882C113.91 52.6355 105.484 52.676 95.0953 52.676C84.7066 52.676 76.2769 52.6355 76.2769 52.5882C76.2769 52.541 84.6999 52.5004 95.0953 52.5004C105.491 52.5004 113.91 52.541 113.91 52.5882Z" fill="#263238"/>
<path d="M113.91 55.1044C113.91 55.1516 105.484 55.1922 95.0953 55.1922C84.7066 55.1922 76.2769 55.1516 76.2769 55.1044C76.2769 55.0571 84.6999 55.0165 95.0953 55.0165C105.491 55.0165 113.91 55.0503 113.91 55.1044Z" fill="#263238"/>
<path d="M71.1366 75.3919H59.0356V63.2876H71.1366V75.3919ZM59.3734 75.0542H70.7988V63.6253H59.3734V75.0542Z" fill="#8B47E0"/>
<path d="M61.4402 69.5897L63.0478 67.8639L65.726 70.0051L71.8558 64.0543L73.325 65.7868L65.6078 73.3993L61.4402 69.5897Z" fill="#8B47E0"/>
<path d="M113.91 66.2124C113.91 66.2596 105.484 66.3002 95.0953 66.3002C84.7066 66.3002 76.2769 66.2596 76.2769 66.2124C76.2769 66.1651 84.6999 66.1245 95.0953 66.1245C105.491 66.1245 113.91 66.1651 113.91 66.2124Z" fill="#263238"/>
<path d="M113.91 68.7284C113.91 68.7757 105.484 68.8163 95.0953 68.8163C84.7066 68.8163 76.2769 68.7757 76.2769 68.7284C76.2769 68.6812 84.6999 68.6406 95.0953 68.6406C105.491 68.6406 113.91 68.6778 113.91 68.7284Z" fill="#263238"/>
<path d="M113.91 71.2412C113.91 71.2918 105.484 71.329 95.0953 71.329C84.7066 71.329 76.2769 71.2918 76.2769 71.2412C76.2769 71.1905 84.6999 71.1534 95.0953 71.1534C105.491 71.1534 113.91 71.1939 113.91 71.2412Z" fill="#263238"/>
<path d="M113.91 73.7573C113.91 73.8046 105.484 73.8451 95.0953 73.8451C84.7066 73.8451 76.2769 73.8046 76.2769 73.7573C76.2769 73.71 84.6999 73.6695 95.0953 73.6695C105.491 73.6695 113.91 73.71 113.91 73.7573Z" fill="#263238"/>
<path d="M71.1366 93.4437H59.0356V81.3394H71.1366V93.4437ZM59.3734 93.1059H70.7988V81.6771H59.3734V93.1059Z" fill="#8B47E0"/>
<path d="M61.4402 87.6414L63.0478 85.9156L65.726 88.0569L71.8558 82.106L73.325 83.8386L65.6078 91.4511L61.4402 87.6414Z" fill="#8B47E0"/>
<path d="M113.91 84.2641C113.91 84.3114 105.484 84.3519 95.0953 84.3519C84.7066 84.3519 76.2769 84.3114 76.2769 84.2641C76.2769 84.2168 84.6999 84.1763 95.0953 84.1763C105.491 84.1763 113.91 84.2135 113.91 84.2641Z" fill="#263238"/>
<path d="M113.91 86.7768C113.91 86.8275 105.484 86.8647 95.0953 86.8647C84.7066 86.8647 76.2769 86.8275 76.2769 86.7768C76.2769 86.7262 84.6999 86.689 95.0953 86.689C105.491 86.689 113.91 86.7296 113.91 86.7768Z" fill="#263238"/>
<path d="M113.91 89.293C113.91 89.3436 105.484 89.3808 95.0953 89.3808C84.7066 89.3808 76.2769 89.3436 76.2769 89.293C76.2769 89.2423 84.6999 89.2051 95.0953 89.2051C105.491 89.2051 113.91 89.2457 113.91 89.293Z" fill="#263238"/>
<path d="M113.91 91.8091C113.91 91.8563 105.484 91.8969 95.0953 91.8969C84.7066 91.8969 76.2769 91.8563 76.2769 91.8091C76.2769 91.7618 84.6999 91.7212 95.0953 91.7212C105.491 91.7212 113.91 91.7618 113.91 91.8091Z" fill="#263238"/>
<path d="M71.1366 110.874H59.0356V98.7697H71.1366V110.874ZM59.3734 110.536H70.7988V99.1074H59.3734V110.536Z" fill="#8B47E0"/>
<path d="M61.4402 105.072L63.0478 103.346L65.726 105.487L71.8558 99.5363L73.325 101.266L65.6078 108.878L61.4402 105.072Z" fill="#8B47E0"/>
<path d="M113.91 101.691C113.91 101.742 105.484 101.779 95.0953 101.779C84.7066 101.779 76.2769 101.742 76.2769 101.691C76.2769 101.64 84.6999 101.603 95.0953 101.603C105.491 101.603 113.91 101.657 113.91 101.691Z" fill="#263238"/>
<path d="M113.91 104.207C113.91 104.254 105.484 104.295 95.0953 104.295C84.7066 104.295 76.2769 104.254 76.2769 104.207C76.2769 104.16 84.6999 104.119 95.0953 104.119C105.491 104.119 113.91 104.16 113.91 104.207Z" fill="#263238"/>
<path d="M113.91 106.723C113.91 106.771 105.484 106.811 95.0953 106.811C84.7066 106.811 76.2769 106.771 76.2769 106.723C76.2769 106.676 84.6999 106.635 95.0953 106.635C105.491 106.635 113.91 106.673 113.91 106.723Z" fill="#263238"/>
<path d="M113.91 109.236C113.91 109.287 105.484 109.324 95.0953 109.324C84.7066 109.324 76.2769 109.287 76.2769 109.236C76.2769 109.185 84.6999 109.148 95.0953 109.148C105.491 109.148 113.91 109.189 113.91 109.236Z" fill="#263238"/>
<path d="M110.448 111.529L102.573 127.842H108.196L110.448 111.529Z" fill="#E0E0E0"/>
<path d="M108.196 127.933L110.448 111.62L123.363 115.606L108.196 127.933Z" fill="#FAFAFA"/>
<path d="M108.196 127.933L112.539 124.356L123.309 115.538L123.34 115.687L118.351 114.153L110.438 111.698L110.543 111.631C109.868 116.359 109.29 120.428 108.881 123.313C108.473 126.119 108.263 127.568 108.206 127.933C108.205 127.908 108.205 127.883 108.206 127.859L108.236 127.636C108.263 127.423 108.301 127.126 108.351 126.747C108.456 125.954 108.604 124.816 108.794 123.37C109.185 120.462 109.732 116.372 110.371 111.593V111.499L110.462 111.526L118.395 113.971L123.38 115.511L123.536 115.558L123.411 115.66C119.051 119.175 115.238 122.249 112.509 124.441L109.324 126.997L108.473 127.673L108.257 127.845L108.196 127.933Z" fill="#263238"/>
<g opacity="0.3">
<path d="M94.6526 16.4881L93.7205 21.9256H94.8823L95.8245 16.4881H94.3419" fill="#0B0909"/>
</g>
<path d="M45.0633 73.835C45.4705 73.8657 45.8797 73.814 46.2665 73.6831C46.6533 73.5522 47.0098 73.3447 47.3146 73.073C47.6194 72.8012 47.8663 72.4709 48.0407 72.1016C48.215 71.7324 48.3131 71.3317 48.3292 70.9237C48.3934 69.2688 48.4508 67.5971 48.4508 67.5971C48.4508 67.5971 50.9568 67.364 51.1527 64.8952C51.3485 62.4264 51.2506 56.6917 51.2506 56.6917C49.8769 55.9986 48.3429 55.6851 46.8074 55.7837C45.2719 55.8823 43.7907 56.3893 42.5168 57.2523L42.6688 65.9793V70.6772C42.6722 72.2375 43.4929 73.7168 45.0633 73.835Z" fill="#FFBE9D"/>
<path d="M48.6672 61.8556C48.4841 61.5925 48.2086 61.4081 47.8956 61.3393C47.5825 61.2704 47.2551 61.3221 46.9785 61.4841C46.6978 61.6791 46.4955 61.9675 46.4077 62.2978C46.3198 62.6281 46.3522 62.9789 46.4989 63.2876C46.6268 63.5167 46.8009 63.7166 47.0102 63.8748C47.2195 64.0329 47.4595 64.1458 47.7148 64.2062C47.9411 64.2554 48.1417 64.3855 48.2791 64.572C48.4165 64.7585 48.4812 64.9886 48.4611 65.2194C48.3572 65.8713 48.0526 66.4745 47.5898 66.9452C46.8248 67.7237 45.8065 68.2029 44.7191 68.2961C43.662 68.4211 42.4529 68.2016 41.8382 67.3336C41.389 66.702 41.3586 65.8746 41.3418 65.1012C41.3035 63.2729 41.2652 61.4447 41.2269 59.6164C41.1872 58.9575 41.2291 58.2961 41.3519 57.6475C41.4812 56.9932 41.8527 56.4118 42.3921 56.0196C42.9966 55.6211 43.7599 55.5873 44.4455 55.3678C45.3067 55.0875 46.0362 54.5201 46.84 54.108C47.6438 53.696 48.6266 53.4495 49.4338 53.8547C50.0147 54.1452 50.4031 54.7227 50.9637 55.0435C51.7675 55.4995 52.8584 55.3813 53.2468 56.5768C53.3835 56.9856 53.3835 57.4278 53.2468 57.8366C52.7031 59.4408 50.7172 60.0893 49.2852 59.3969C49.2582 59.6671 49.525 60.2716 49.2379 61.1295C49.1467 61.4064 49.1163 61.8218 48.6874 61.832" fill="#263238"/>
<path d="M41.8214 56.739C42.215 55.9546 42.4839 55.1137 42.6184 54.2465C42.6821 53.8122 42.6449 53.369 42.5096 52.9514C42.3743 52.5338 42.1446 52.1529 41.8383 51.8385C41.3862 51.4459 40.802 51.2395 40.2037 51.2609C39.6353 51.2933 39.0907 51.5005 38.6446 51.8542C38.1984 52.2078 37.8724 52.6907 37.7112 53.2367C37.5721 53.7872 37.5936 54.366 37.7731 54.9047C37.9527 55.4434 38.2828 55.9193 38.7244 56.2763C39.1759 56.6231 39.7111 56.8445 40.2757 56.918C40.8403 56.9915 41.4143 56.9146 41.9396 56.6951" fill="#263238"/>
<path d="M42.3076 55.844C42.2894 56.1472 42.1589 56.4327 41.9416 56.645C41.7244 56.8573 41.4359 56.9811 41.1323 56.9923C41.1323 56.9416 41.4971 56.8437 41.8078 56.5194C42.1185 56.1952 42.2603 55.8305 42.3076 55.844Z" fill="#8B47E0"/>
<path d="M41.4935 56.4519C41.3 56.6548 41.0711 56.8207 40.8181 56.9416C40.5477 57.0957 40.2442 57.1826 39.9332 57.1949C39.7357 57.2056 39.5386 57.1688 39.3582 57.0877C39.1778 57.0067 39.0195 56.8836 38.8964 56.7288C38.7874 56.5659 38.7147 56.3815 38.6833 56.188C38.6518 55.9946 38.6623 55.7966 38.714 55.6076C38.7924 55.3075 38.934 55.0277 39.1294 54.7869C39.2911 54.5586 39.4897 54.3589 39.7171 54.1958C39.5668 54.4293 39.4044 54.6547 39.2307 54.8713C39.0612 55.1065 38.9396 55.3727 38.8727 55.6548C38.8306 55.8212 38.8235 55.9945 38.852 56.1637C38.8805 56.3329 38.9439 56.4943 39.0382 56.6376C39.1462 56.7695 39.2831 56.8746 39.4383 56.9449C39.5935 57.0152 39.7629 57.0488 39.9332 57.0429C40.2218 57.0383 40.5057 56.9691 40.764 56.8403C41.2031 56.614 41.4766 56.4249 41.4935 56.4519Z" fill="#263238"/>
<path d="M37.2788 59.2517C37.3297 59.3375 37.3694 59.4294 37.397 59.5253C37.4845 59.7783 37.6086 60.0172 37.7651 60.2345C37.8692 60.3916 38.0151 60.5165 38.1863 60.5953C38.3576 60.6741 38.5474 60.7035 38.7344 60.6803C38.9583 60.6171 39.162 60.4971 39.3259 60.332C39.4898 60.1669 39.6083 59.9623 39.6699 59.738C39.7912 59.2657 39.8759 58.7847 39.9232 58.2993C39.9709 57.883 40.1348 57.4886 40.396 57.1611C40.5832 56.9457 40.8381 56.8004 41.1188 56.7491C41.2203 56.7243 41.3272 56.7338 41.4227 56.7761C41.4227 56.7761 41.3113 56.7761 41.1323 56.8166C40.8786 56.8868 40.6539 57.0358 40.4906 57.2422C40.2605 57.5596 40.1194 57.9327 40.0819 58.3229C40.043 58.82 39.9605 59.3128 39.8354 59.7954C39.7657 60.0488 39.6298 60.279 39.4416 60.4624C39.2535 60.6459 39.0199 60.7758 38.7648 60.839C38.5316 60.8763 38.2926 60.8309 38.0893 60.7107C37.9207 60.6083 37.7756 60.4713 37.6638 60.3088C37.5089 60.0765 37.3947 59.8195 37.3261 59.5489C37.2914 59.4538 37.2754 59.3529 37.2788 59.2517Z" fill="#263238"/>
<path d="M36.0597 80.0864C36.0597 80.0864 34.7932 89.347 36.0597 90.5223C37.3262 91.6976 38.5387 91.3058 38.5387 91.3058L40.9467 89.2794L41.4195 80.0729L36.0597 80.0864Z" fill="#FFBE9D"/>
<path d="M62.2168 54.0912L63.8244 52.3653L66.5026 54.5066L72.6324 48.5557L74.1016 50.2883L66.3844 57.9008L62.2168 54.0912Z" fill="#8B47E0"/>
<path d="M69.7686 54.5606L67.4383 56.0567C67.3336 55.1347 66.6311 54.2229 66.6649 54.6856C66.6987 55.1482 66.6649 57.5495 66.6649 57.5495L62.5142 66.2934C61.9501 67.6781 60.8052 68.5494 59.9508 68.7555L56.0635 69.9105L57.5799 75.0407L62.9836 73.2507C63.6733 73.0221 64.2999 72.6352 64.8131 72.1208C65.3263 71.6065 65.7118 70.979 65.9388 70.2888L69.6538 58.968C69.9005 58.2388 70.0991 57.4942 70.2482 56.739C70.4103 55.7899 69.7686 54.5606 69.7686 54.5606Z" fill="#FFBE9D"/>
<path d="M50.6767 150.196L50.6159 147.606L45.7593 147.683L45.8032 151.476L46.1071 151.493C47.4581 151.544 52.9327 151.665 53.8243 151.382C54.8172 151.061 50.6767 150.196 50.6767 150.196Z" fill="#8B47E0"/>
<g opacity="0.5">
<path d="M47.566 151.412C47.4841 151.008 47.2571 150.647 46.9277 150.399C46.6033 150.146 46.1956 150.026 45.7861 150.061L45.8064 151.412H47.566Z" fill="white"/>
</g>
<g opacity="0.4">
<path d="M52.686 150.693C52.686 150.693 54.1383 151.084 53.9627 151.328C53.787 151.571 48.2415 151.665 45.7896 151.476V151.368L52.2605 151.324C52.2605 151.324 52.4192 150.709 52.686 150.693Z" fill="white"/>
</g>
<path d="M45.7321 151.365H45.8165H46.0563L46.9411 151.388C47.6875 151.405 48.7176 151.412 49.8558 151.388C50.9939 151.365 52.0274 151.334 52.7704 151.297L53.6552 151.246L53.895 151.23H53.9761H53.8917H53.6519L52.7704 151.263C52.024 151.287 50.9939 151.321 49.8558 151.338C48.7176 151.355 47.6875 151.338 46.9411 151.338H46.0597H45.7219L45.7321 151.365Z" fill="#263238"/>
<path d="M52.281 151.398C52.3161 151.252 52.3694 151.11 52.4397 150.976C52.5247 150.853 52.6233 150.74 52.7335 150.639C52.5898 150.706 52.4698 150.815 52.389 150.952C52.3083 151.089 52.2706 151.247 52.281 151.405V151.398Z" fill="#263238"/>
<path d="M50.8353 150.693C50.8353 150.693 50.9164 150.618 50.9873 150.507C51.0582 150.395 51.0987 150.294 51.0852 150.287C51.0717 150.281 51.0042 150.362 50.9366 150.473C50.8691 150.585 50.8218 150.686 50.8353 150.693Z" fill="#263238"/>
<path d="M50.4401 150.493C50.4401 150.493 50.5246 150.453 50.609 150.375C50.6934 150.297 50.7474 150.227 50.7373 150.216C50.7272 150.206 50.6495 150.257 50.5685 150.331C50.4874 150.406 50.4266 150.48 50.4401 150.493Z" fill="#263238"/>
<path d="M50.1836 150.037C50.2646 150.067 50.3515 150.076 50.4369 150.064C50.5225 150.074 50.6093 150.064 50.6902 150.034C50.6084 150.008 50.5223 149.999 50.4369 150.007C50.3512 149.997 50.2645 150.008 50.1836 150.037Z" fill="#263238"/>
<path d="M50.0923 149.717C50.1776 149.769 50.276 149.796 50.376 149.794C50.4761 149.809 50.5783 149.793 50.6698 149.75C50.5732 149.741 50.4759 149.741 50.3794 149.75C50.2849 149.73 50.1888 149.719 50.0923 149.717Z" fill="#263238"/>
<path d="M50.9976 150.267C51.1003 150.286 51.2056 150.286 51.3083 150.267C51.423 150.252 51.5361 150.226 51.646 150.189C51.7116 150.169 51.775 150.142 51.8351 150.108C51.8542 150.098 51.8709 150.084 51.8843 150.068C51.8976 150.051 51.9074 150.031 51.9128 150.01C51.9168 149.987 51.9142 149.963 51.9052 149.941C51.8963 149.919 51.8814 149.9 51.8622 149.885C51.7418 149.83 51.606 149.817 51.4775 149.85C51.3489 149.882 51.2355 149.958 51.1563 150.064C51.1108 150.128 51.0776 150.199 51.0583 150.274C51.0524 150.302 51.0524 150.33 51.0583 150.358C51.0906 150.263 51.1373 150.173 51.1968 150.091C51.2665 150.009 51.3576 149.947 51.4602 149.912C51.583 149.87 51.7176 149.877 51.8351 149.933C51.8824 149.97 51.8655 150.027 51.8115 150.061C51.7555 150.092 51.6967 150.118 51.6359 150.139C51.5258 150.177 51.4128 150.206 51.2981 150.227C51.1124 150.257 50.9976 150.257 50.9976 150.267Z" fill="#263238"/>
<path d="M51.075 150.291C51.113 150.225 51.1251 150.148 51.1088 150.075C51.096 149.993 51.0649 149.916 51.0176 149.848C50.9909 149.803 50.953 149.764 50.9075 149.737C50.8621 149.71 50.8105 149.695 50.7575 149.693C50.7417 149.696 50.7267 149.702 50.7134 149.712C50.7001 149.721 50.6887 149.732 50.6799 149.746C50.6711 149.759 50.665 149.774 50.6621 149.79C50.6592 149.806 50.6595 149.822 50.663 149.838C50.6705 149.888 50.6889 149.935 50.717 149.977C50.7581 150.046 50.8093 150.108 50.869 150.162C50.9172 150.218 50.9788 150.261 51.048 150.287C51.048 150.287 50.9872 150.233 50.8994 150.135C50.8488 150.078 50.8036 150.015 50.7643 149.95C50.7204 149.885 50.69 149.767 50.7643 149.75C50.8386 149.733 50.923 149.818 50.9703 149.879C51.0155 149.939 51.0477 150.008 51.0649 150.081C51.0742 150.151 51.0776 150.221 51.075 150.291Z" fill="#263238"/>
<path d="M45.8132 150.034C45.8132 150.034 45.9517 150.034 46.1712 150.034C46.4576 150.061 46.7304 150.169 46.9581 150.345C47.1858 150.52 47.3591 150.757 47.458 151.027C47.5357 151.233 47.5458 151.365 47.5559 151.365C47.5626 151.332 47.5626 151.299 47.5559 151.267C47.5449 151.178 47.5257 151.091 47.4985 151.007C47.4049 150.725 47.2285 150.477 46.9925 150.296C46.7564 150.116 46.4714 150.01 46.1746 149.994C46.0859 149.984 45.9965 149.984 45.9078 149.994C45.8739 150.001 45.8417 150.014 45.8132 150.034Z" fill="#263238"/>
<path d="M46.2862 148.008C46.256 148.339 46.247 148.672 46.2592 149.004C46.2484 149.342 46.2585 149.68 46.2896 150.017C46.3203 149.68 46.3293 149.342 46.3166 149.004C46.3247 148.672 46.3146 148.339 46.2862 148.008Z" fill="#263238"/>
<path d="M48.1672 150.929C48.4015 150.977 48.6409 150.997 48.8799 150.986C49.1182 150.997 49.3569 150.974 49.5891 150.919C49.5891 150.902 49.2514 150.919 48.8799 150.919C48.5083 150.919 48.1706 150.912 48.1672 150.929Z" fill="#263238"/>
<path d="M47.2183 150.939C47.2183 150.939 47.2453 151.007 47.2757 151.081C47.3061 151.155 47.3297 151.216 47.3466 151.216C47.3635 151.216 47.3702 151.138 47.3297 151.054C47.2892 150.97 47.2284 150.929 47.2183 150.939Z" fill="#263238"/>
<path d="M46.8501 150.5C46.8501 150.5 46.8704 150.561 46.9244 150.612C46.9784 150.662 47.0257 150.693 47.0359 150.682C47.046 150.672 47.0156 150.618 46.9649 150.571C46.9143 150.524 46.8636 150.487 46.8501 150.5Z" fill="#263238"/>
<path d="M46.3334 150.291C46.3334 150.291 46.4043 150.291 46.4752 150.328C46.5461 150.365 46.5968 150.389 46.6103 150.379C46.6238 150.368 46.5833 150.301 46.4921 150.274C46.4009 150.247 46.33 150.291 46.3334 150.291Z" fill="#263238"/>
<path d="M45.9685 150.213C45.9685 150.213 45.9888 150.254 46.0293 150.267C46.0698 150.281 46.107 150.284 46.1137 150.267C46.1205 150.25 46.0901 150.227 46.0496 150.213C46.009 150.2 45.9719 150.196 45.9685 150.213Z" fill="#263238"/>
<path d="M33.5334 149.369L35.1816 147.366L31.4462 144.255L29.0078 147.16L29.224 147.369C30.2068 148.285 34.2899 151.952 35.1478 152.317C36.1103 152.726 33.5334 149.369 33.5334 149.369Z" fill="#8B47E0"/>
<g opacity="0.5">
<path d="M30.3958 148.264C30.6025 147.903 30.6686 147.479 30.5816 147.072C30.4988 146.67 30.2672 146.314 29.9332 146.076L29.0449 147.113L30.3958 148.264Z" fill="white"/>
</g>
<g opacity="0.4">
<path d="M34.7459 151.064C34.7459 151.064 35.5902 152.31 35.2998 152.378C35.0093 152.445 30.7336 148.892 29.0078 147.16L29.0821 147.082L34.0164 151.27C34.0164 151.27 34.5196 150.892 34.7459 151.064Z" fill="white"/>
</g>
<path d="M29.0247 147.032L29.0821 147.092L29.2577 147.258L29.9129 147.852C30.4668 148.349 31.2436 149.028 32.1183 149.757C32.993 150.487 33.8069 151.132 34.3878 151.591L35.0903 152.128L35.2828 152.27L35.3538 152.317L35.2896 152.26L35.1038 152.108L34.4284 151.557C33.8441 151.091 33.0437 150.443 32.1689 149.713C31.2942 148.984 30.5141 148.312 29.9534 147.822L29.278 147.241L29.0956 147.082L29.0247 147.032Z" fill="#263238"/>
<path d="M33.9656 151.328C34.0887 151.238 34.2226 151.164 34.3641 151.108C34.5101 151.071 34.6595 151.048 34.8099 151.04C34.6595 150.985 34.4943 150.985 34.3438 151.04C34.1872 151.087 34.0528 151.189 33.9656 151.328Z" fill="#263238"/>
<path d="M33.3308 149.848C33.3308 149.865 33.4423 149.848 33.5672 149.804C33.6922 149.76 33.7935 149.72 33.7867 149.703C33.78 149.686 33.6753 149.703 33.5503 149.747C33.4707 149.765 33.3959 149.799 33.3308 149.848Z" fill="#263238"/>
<path d="M33.1619 149.436C33.1619 149.436 33.2531 149.463 33.3679 149.46C33.4827 149.457 33.5705 149.44 33.5705 149.423C33.5705 149.406 33.476 149.396 33.3645 149.399C33.295 149.396 33.2257 149.408 33.1619 149.436Z" fill="#263238"/>
<path d="M33.2632 148.94C33.2632 148.94 33.3307 149.034 33.4388 149.126C33.4998 149.187 33.572 149.236 33.6516 149.271C33.6516 149.271 33.584 149.173 33.476 149.082C33.3679 148.99 33.2767 148.913 33.2632 148.94Z" fill="#263238"/>
<path d="M33.4053 148.622C33.442 148.715 33.4981 148.799 33.5697 148.868C33.6413 148.937 33.7269 148.991 33.8207 149.024C33.7553 148.953 33.6853 148.887 33.6113 148.825C33.4998 148.717 33.4357 148.602 33.4053 148.622Z" fill="#263238"/>
<path d="M33.7293 149.615C33.7962 149.696 33.8775 149.763 33.969 149.815C34.0649 149.876 34.1667 149.928 34.273 149.97C34.3358 149.998 34.4015 150.02 34.4689 150.034C34.5114 150.041 34.555 150.032 34.5905 150.007C34.6091 149.993 34.6231 149.973 34.6309 149.951C34.6387 149.929 34.6399 149.905 34.6344 149.882C34.5823 149.759 34.4885 149.657 34.3695 149.595C34.2504 149.534 34.1135 149.516 33.9825 149.544C33.9054 149.559 33.8327 149.592 33.7698 149.639C33.7461 149.654 33.7255 149.674 33.709 149.696C33.7955 149.644 33.8903 149.606 33.9893 149.585C34.0965 149.566 34.2067 149.579 34.3068 149.622C34.4271 149.669 34.5242 149.761 34.577 149.879C34.577 149.939 34.5398 149.973 34.4756 149.963C34.4133 149.949 34.3523 149.93 34.2933 149.906C34.1892 149.867 34.0886 149.82 33.9927 149.764C33.8272 149.7 33.736 149.615 33.7293 149.615Z" fill="#263238"/>
<path d="M33.7732 149.693C33.7732 149.693 33.861 149.666 33.9421 149.551C33.9856 149.481 34.0133 149.403 34.0231 149.321C34.0309 149.269 34.026 149.215 34.009 149.164C33.992 149.114 33.9633 149.068 33.9252 149.031C33.8961 149.015 33.862 149.012 33.8303 149.021C33.7987 149.031 33.7721 149.053 33.7563 149.082C33.7306 149.124 33.7145 149.171 33.7091 149.22C33.6992 149.3 33.6992 149.38 33.7091 149.46C33.709 149.534 33.7276 149.607 33.7631 149.673C33.7631 149.673 33.7631 149.588 33.7631 149.46C33.7622 149.383 33.769 149.306 33.7834 149.23C33.7834 149.153 33.8441 149.045 33.9151 149.082C33.986 149.119 33.9894 149.237 33.9894 149.315C33.9834 149.389 33.9615 149.462 33.9252 149.527C33.8808 149.588 33.8299 149.644 33.7732 149.693Z" fill="#263238"/>
<path d="M29.9534 146.076C29.9534 146.076 30.0682 146.154 30.2202 146.312C30.418 146.521 30.5546 146.781 30.6153 147.062C30.6713 147.344 30.6479 147.637 30.5478 147.906C30.4701 148.116 30.3857 148.227 30.3958 148.244C30.4212 148.222 30.4428 148.196 30.46 148.166C30.5103 148.094 30.5522 148.016 30.5849 147.933C30.7017 147.658 30.7323 147.355 30.6727 147.062C30.6118 146.77 30.4647 146.503 30.2506 146.295C30.1867 146.233 30.1166 146.178 30.0412 146.13C30.0156 146.106 29.9858 146.088 29.9534 146.076Z" fill="#263238"/>
<path d="M31.6352 144.843C31.3953 145.076 31.1697 145.323 30.9597 145.583C30.7368 145.83 30.5271 146.09 30.3315 146.359C30.573 146.13 30.7986 145.884 31.007 145.623C31.2296 145.374 31.4392 145.114 31.6352 144.843Z" fill="#263238"/>
<path d="M31.1558 148.288C31.3001 148.477 31.4681 148.648 31.6556 148.795C31.8309 148.958 32.0275 149.096 32.2399 149.207C32.2399 149.207 31.9933 149.004 31.6961 148.751C31.3989 148.497 31.1693 148.264 31.1558 148.288Z" fill="#263238"/>
<path d="M30.4264 147.677C30.4264 147.677 30.4028 147.744 30.3825 147.822C30.3623 147.9 30.3319 147.957 30.3454 147.967C30.3589 147.977 30.4129 147.927 30.44 147.835C30.467 147.744 30.4433 147.673 30.4264 147.677Z" fill="#263238"/>
<path d="M30.4365 147.103C30.4196 147.103 30.4128 147.163 30.4196 147.234C30.4263 147.305 30.4432 147.363 30.4601 147.363C30.477 147.363 30.4838 147.302 30.4601 147.231C30.4365 147.16 30.4534 147.103 30.4365 147.103Z" fill="#263238"/>
<path d="M30.1729 146.616C30.1729 146.633 30.2168 146.674 30.2539 146.738C30.2911 146.802 30.3079 146.866 30.3248 146.866C30.3417 146.866 30.3519 146.788 30.3046 146.707C30.2573 146.626 30.1796 146.603 30.1729 146.616Z" fill="#263238"/>
<path d="M29.9534 146.309C29.9534 146.309 29.9534 146.356 29.9534 146.393C29.9534 146.43 30.004 146.454 30.0175 146.447C30.031 146.441 30.0175 146.4 30.0175 146.363C30.0175 146.326 29.9669 146.302 29.9534 146.309Z" fill="#263238"/>
<path d="M43.6418 95.1019C43.6418 95.1019 42.024 101.944 42.4834 103.299C42.9427 104.653 45.9046 105.433 45.9046 105.433L45.8033 124.174L29.4165 144.438L35.4619 149.382C35.4619 149.382 53.2063 129.088 54.77 125.403C56.3337 121.719 53.7568 94.7878 53.7568 94.7878L43.6418 95.1019Z" fill="#263238"/>
<path d="M52.0107 92.3123L52.8111 149.227L44.4793 149.278L40.2948 102.914C39.4099 102.069 38.1637 100.624 38.3359 97.3985L38.5386 93.6531L52.0107 92.3123Z" fill="#263238"/>
<path d="M43.2297 127.342C43.2419 127.312 43.2578 127.283 43.277 127.257C43.3209 127.197 43.3716 127.119 43.4358 127.024L44.0538 126.15L46.3166 123.015V123.059C46.1342 121.084 45.9147 118.689 45.6783 116.105C45.3743 112.728 45.1312 109.655 44.9859 107.429C44.9116 106.318 44.8644 105.42 44.8373 104.798C44.8373 104.501 44.8171 104.261 44.8137 104.079C44.8034 103.996 44.8034 103.912 44.8137 103.829C44.83 103.911 44.8402 103.995 44.8441 104.079C44.8441 104.258 44.8779 104.498 44.9015 104.795C44.9522 105.433 45.0197 106.325 45.1075 107.422C45.2831 109.641 45.5466 112.705 45.8505 116.089C46.0768 118.682 46.3065 121.074 46.4585 123.059V123.083V123.103L44.145 126.197L43.4932 127.051L43.3175 127.271C43.2466 127.325 43.2297 127.345 43.2297 127.342Z" fill="#455A64"/>
<path d="M45.7829 103.829C45.0374 103.789 44.2975 103.676 43.5742 103.491C42.8383 103.367 42.1166 103.17 41.4194 102.904C42.1577 102.998 42.8896 103.137 43.6113 103.319C44.3443 103.447 45.0694 103.618 45.7829 103.829Z" fill="#455A64"/>
<path d="M51.4907 123.272C50.7715 122.974 50.0146 122.776 49.2414 122.685C48.4624 122.653 47.6828 122.729 46.9246 122.911C47.1226 122.786 47.3427 122.7 47.573 122.657C48.1236 122.514 48.6944 122.464 49.2617 122.509C49.8253 122.554 50.3776 122.692 50.8963 122.918C51.1141 122.999 51.3154 123.119 51.4907 123.272Z" fill="#455A64"/>
<path d="M54.4322 125.9C54.4694 125.93 52.1255 129.078 49.194 132.928C46.2625 136.778 43.8545 139.882 43.8173 139.855C43.7802 139.828 46.124 136.677 49.0556 132.823C51.9871 128.97 54.3951 125.869 54.4322 125.9Z" fill="#455A64"/>
<path d="M53.3041 96.5373C53.2081 96.7838 53.0456 96.9989 52.8347 97.1587C52.5933 97.3701 52.3109 97.5293 52.0051 97.6263C51.6993 97.7233 51.3767 97.7561 51.0576 97.7225C50.7386 97.6888 50.4299 97.5896 50.151 97.431C49.8721 97.2724 49.6291 97.0578 49.4371 96.8007C49.2583 96.6032 49.141 96.358 49.0994 96.0949C49.2294 96.311 49.3714 96.5196 49.5249 96.7197C49.9109 97.1876 50.4652 97.4851 51.0685 97.5483C51.6718 97.6115 52.2757 97.4352 52.7502 97.0574C52.9438 96.8938 53.1287 96.7202 53.3041 96.5373Z" fill="#455A64"/>
<path d="M41.9124 67.2526C40.5395 65.9481 39.73 64.1593 39.6562 62.2669C39.5824 60.3745 40.2501 58.528 41.5173 57.1206" fill="#263238"/>
<path d="M37.2281 72.5617C37.2281 72.5617 35.4179 74.6084 35.043 82.4336C35.043 82.4336 40.2001 83.413 40.2947 83.1327C40.3893 82.8524 37.2281 72.5617 37.2281 72.5617Z" fill="#8B47E0"/>
<g opacity="0.3">
<path d="M37.2281 72.5617C37.2281 72.5617 35.4179 74.6084 35.043 82.4336C35.043 82.4336 40.2001 83.413 40.2947 83.1327C40.3893 82.8524 37.2281 72.5617 37.2281 72.5617Z" fill="#0B0909"/>
</g>
<path d="M38.0657 95.3552H53.902L53.6453 92.8797C53.6453 92.8797 51.835 83.4705 51.8486 83.3455L52.1322 82.7477C52.5023 81.9715 52.7002 81.1245 52.7124 80.2647C52.7247 79.4049 52.5509 78.5526 52.2032 77.7662L59.971 75.115L58.073 68.7183C54.5538 69.3094 49.2345 69.9747 49.2345 69.9747L48.4442 70.0389C48.4442 70.0389 42.9527 70.3259 42.8345 70.3394C40.5379 70.6198 37.8665 70.7954 36.8904 73.2541C36.3669 74.5678 36.8634 76.5402 37.7178 78.5733L39.7442 84.8214C40.5548 88.2561 39.2613 88.0906 38.5487 91.549C38.4338 92.0691 38.0556 94.8757 38.0657 95.3552Z" fill="#8B47E0"/>
<g opacity="0.3">
<path d="M38.0657 95.3552H53.902L53.6453 92.8797C53.6453 92.8797 51.835 83.4705 51.8486 83.3455L52.1322 82.7477C52.5023 81.9715 52.7002 81.1245 52.7124 80.2647C52.7247 79.4049 52.5509 78.5526 52.2032 77.7662L59.971 75.115L58.073 68.7183C54.5538 69.3094 49.2345 69.9747 49.2345 69.9747L48.4442 70.0389C48.4442 70.0389 42.9527 70.3259 42.8345 70.3394C40.5379 70.6198 37.8665 70.7954 36.8904 73.2541C36.3669 74.5678 36.8634 76.5402 37.7178 78.5733L39.7442 84.8214C40.5548 88.2561 39.2613 88.0906 38.5487 91.549C38.4338 92.0691 38.0556 94.8757 38.0657 95.3552Z" fill="#0B0909"/>
</g>
<path d="M59.8833 75.2197C59.7762 75.2799 59.663 75.3286 59.5456 75.3649C59.3226 75.4459 58.995 75.5574 58.5898 75.7026C57.7792 75.9762 56.6512 76.3375 55.4083 76.7361C54.1655 77.1346 53.0442 77.5297 52.2674 77.854C51.8689 78.0161 51.5548 78.1579 51.3353 78.2525C51.2288 78.3115 51.1153 78.3568 50.9976 78.3876C51.0957 78.3096 51.2021 78.2427 51.315 78.1883C51.5278 78.0769 51.8351 77.9147 52.2269 77.7391C53.2508 77.2929 54.2981 76.9028 55.3644 76.5706C56.6107 76.1721 57.7286 75.8276 58.5628 75.5844C58.9714 75.4628 59.3058 75.3683 59.5354 75.3041C59.6474 75.2616 59.7643 75.2332 59.8833 75.2197Z" fill="#263238"/>
<path d="M58.9645 71.8119C58.9645 71.8592 54.2802 71.8998 48.4948 71.8998C42.7095 71.8998 38.0251 71.8592 38.0251 71.8119C38.0251 71.7647 42.7061 71.7241 48.4948 71.7241C54.2836 71.7241 58.9645 71.7647 58.9645 71.8119Z" fill="#FAFAFA"/>
<path d="M59.4408 74.9224C59.4408 74.9697 54.2296 75.0103 47.8026 75.0103C41.3756 75.0103 36.1677 74.9697 36.1677 74.9224C36.1677 74.8752 41.3756 74.8346 47.8026 74.8346C54.2296 74.8346 59.4408 74.8752 59.4408 74.9224Z" fill="#FAFAFA"/>
<path d="M37.4881 78.4619C37.1715 78.5478 36.8423 78.5775 36.5154 78.5497C36.1897 78.5774 35.8616 78.5477 35.5461 78.4619C35.8616 78.3761 36.1897 78.3464 36.5154 78.3741C36.8423 78.3463 37.1715 78.376 37.4881 78.4619Z" fill="#FAFAFA"/>
<path d="M52.6862 78.57C52.6862 78.6172 49.2785 78.6578 45.0771 78.6578C40.8757 78.6578 37.468 78.6172 37.468 78.57C37.468 78.5227 40.8724 78.4821 45.0771 78.4821C49.2819 78.4821 52.6862 78.5193 52.6862 78.57Z" fill="#FAFAFA"/>
<path d="M52.3483 82.2141C52.3483 82.2647 49.2884 82.3019 45.5193 82.3019C41.7502 82.3019 38.687 82.2647 38.687 82.2141C38.687 82.1634 41.7435 82.1263 45.5193 82.1263C49.2952 82.1263 52.3483 82.1668 52.3483 82.2141Z" fill="#FAFAFA"/>
<path d="M52.2538 85.5948C52.2538 85.6421 49.4844 85.6826 46.0666 85.6826C42.6487 85.6826 39.8726 85.6421 39.8726 85.5948C39.8726 85.5475 42.6453 85.507 46.0666 85.507C49.4878 85.507 52.2538 85.5441 52.2538 85.5948Z" fill="#FAFAFA"/>
<path d="M52.7976 88.327C52.7976 88.3777 49.8323 88.4148 46.1747 88.4148C42.517 88.4148 39.5518 88.3777 39.5518 88.327C39.5518 88.2764 42.517 88.2392 46.1747 88.2392C49.8323 88.2392 52.7976 88.2797 52.7976 88.327Z" fill="#FAFAFA"/>
<path d="M53.6555 91.8124C53.6555 91.8631 50.2782 91.9002 46.1207 91.9002C41.9633 91.9002 38.5859 91.8631 38.5859 91.8124C38.5859 91.7618 41.9633 91.7246 46.1207 91.7246C50.2782 91.7246 53.6555 91.7651 53.6555 91.8124Z" fill="#FAFAFA"/>
<path d="M39.6396 84.5275C39.5758 84.4323 39.5279 84.3274 39.4977 84.2168L39.16 83.3522C38.8797 82.6227 38.4845 81.6163 38.0792 80.4917C37.674 79.367 37.3329 78.3403 37.1201 77.5872C37.0154 77.2089 36.9343 76.9117 36.8904 76.6888C36.8579 76.5789 36.8387 76.4655 36.833 76.3511C36.9893 76.7432 37.1246 77.1434 37.2383 77.55C37.4815 78.293 37.8361 79.313 38.2515 80.4342C38.6669 81.5555 39.0316 82.5687 39.2647 83.3117C39.3896 83.6832 39.4842 83.9872 39.545 84.1966C39.5905 84.3024 39.6223 84.4136 39.6396 84.5275Z" fill="#263238"/>
</svg>
