<svg width="145" height="36" viewBox="0 0 145 36" fill="none" xmlns="http://www.w3.org/2000/svg">
<path d="M11.9835 14.6145L6.14028 11.2174L0.289307 14.6145V21.3932L6.14028 24.7826L11.9835 21.3932V14.6145ZM10.7253 20.6642L6.14028 23.3167L1.55523 20.6642V15.3436L6.14028 12.6833L10.7253 15.3436V20.6642Z" fill="white"/>
<path d="M24.6131 14.6068L18.9962 11.2174L13.3867 14.6068V21.3855L18.9962 24.7826L24.6131 21.3855V14.6068Z" fill="white"/>
<path d="M31.8599 11.2174L26.0166 14.6145V21.3932L31.8599 24.7826L37.7108 21.3932V14.6145L31.8599 11.2174ZM36.445 20.6642L31.8599 23.3167L27.2748 20.6642V15.3436L31.8599 12.6833L36.445 15.3436V20.6642Z" fill="white"/>
<path d="M6.83813 25.8409V32.6197L12.6968 36.0091L18.5323 32.6197V25.8409L12.6968 22.4438L6.83813 25.8409ZM17.2526 31.9139L12.6968 34.5432L8.07154 31.9139V26.57L12.6968 23.9097L17.2681 26.57L17.2526 31.9139Z" fill="white"/>
<path d="M19.4678 25.8409V32.6197L25.311 36.0091L31.162 32.6197V25.8409L25.311 22.4438L19.4678 25.8409ZM29.896 31.9139L25.311 34.5665L20.7337 31.9139V26.57L25.311 23.9097L29.896 26.57V31.9139Z" fill="white"/>
<path d="M18.5323 10.1668V3.36483L12.7045 -0.0090332L6.83813 3.36483V10.1436L12.7045 13.5562L18.5323 10.1668ZM8.07318 4.14044L12.7045 1.45686L17.2664 4.14044V9.46106L12.7045 12.0903L8.07318 9.43776V4.14044Z" fill="white"/>
<path d="M31.162 10.1901V3.38808L25.311 -0.0090332L19.4678 3.38808V10.1668L25.311 13.5562L31.162 10.1901ZM20.7337 4.16369L25.311 1.5034L29.896 4.16369V9.4843L25.311 12.1369L20.7337 9.4843V4.16369Z" fill="white"/>
<path d="M54.1907 11.9V14.612H49.7507V27.5H46.8707V14.612H42.4307V11.9H54.1907ZM55.842 21.452C55.842 20.172 56.09 19.06 56.586 18.116C57.082 17.172 57.778 16.444 58.674 15.932C59.57 15.404 60.61 15.14 61.794 15.14C62.978 15.14 64.01 15.404 64.89 15.932C65.786 16.444 66.482 17.172 66.978 18.116C67.474 19.06 67.722 20.172 67.722 21.452C67.722 22.716 67.474 23.828 66.978 24.788C66.482 25.732 65.786 26.476 64.89 27.02C64.01 27.548 62.978 27.812 61.794 27.812C60.61 27.812 59.57 27.548 58.674 27.02C57.778 26.476 57.082 25.732 56.586 24.788C56.09 23.828 55.842 22.716 55.842 21.452ZM64.77 21.452C64.77 20.252 64.506 19.324 63.978 18.668C63.466 17.996 62.738 17.66 61.794 17.66C60.85 17.66 60.114 17.996 59.586 18.668C59.058 19.324 58.794 20.252 58.794 21.452C58.794 22.668 59.058 23.612 59.586 24.284C60.114 24.956 60.85 25.292 61.794 25.292C62.738 25.292 63.466 24.956 63.978 24.284C64.506 23.612 64.77 22.668 64.77 21.452ZM81.4078 10.7V27.5H78.5278V10.7H81.4078ZM79.4398 21.452C79.4398 22.716 79.2398 23.828 78.8398 24.788C78.4398 25.732 77.8798 26.476 77.1598 27.02C76.4558 27.548 75.6238 27.812 74.6638 27.812C73.6558 27.812 72.7678 27.548 71.9998 27.02C71.2478 26.476 70.6558 25.732 70.2238 24.788C69.8078 23.828 69.5998 22.716 69.5998 21.452C69.5998 20.172 69.8078 19.06 70.2238 18.116C70.6558 17.172 71.2478 16.444 71.9998 15.932C72.7678 15.404 73.6558 15.14 74.6638 15.14C75.6238 15.14 76.4558 15.404 77.1598 15.932C77.8798 16.444 78.4398 17.172 78.8398 18.116C79.2398 19.06 79.4398 20.172 79.4398 21.452ZM72.5518 21.452C72.5518 22.668 72.8158 23.612 73.3438 24.284C73.8718 24.956 74.5998 25.292 75.5278 25.292C76.4718 25.292 77.2078 24.956 77.7358 24.284C78.2638 23.612 78.5278 22.668 78.5278 21.452C78.5278 20.252 78.2638 19.324 77.7358 18.668C77.2078 17.996 76.4718 17.66 75.5278 17.66C74.5998 17.66 73.8718 17.996 73.3438 18.668C72.8158 19.324 72.5518 20.252 72.5518 21.452ZM83.5217 21.452C83.5217 20.172 83.7697 19.06 84.2657 18.116C84.7617 17.172 85.4577 16.444 86.3537 15.932C87.2497 15.404 88.2897 15.14 89.4737 15.14C90.6577 15.14 91.6897 15.404 92.5697 15.932C93.4657 16.444 94.1617 17.172 94.6577 18.116C95.1537 19.06 95.4017 20.172 95.4017 21.452C95.4017 22.716 95.1537 23.828 94.6577 24.788C94.1617 25.732 93.4657 26.476 92.5697 27.02C91.6897 27.548 90.6577 27.812 89.4737 27.812C88.2897 27.812 87.2497 27.548 86.3537 27.02C85.4577 26.476 84.7617 25.732 84.2657 24.788C83.7697 23.828 83.5217 22.716 83.5217 21.452ZM92.4497 21.452C92.4497 20.252 92.1857 19.324 91.6577 18.668C91.1457 17.996 90.4177 17.66 89.4737 17.66C88.5297 17.66 87.7937 17.996 87.2657 18.668C86.7377 19.324 86.4737 20.252 86.4737 21.452C86.4737 22.668 86.7377 23.612 87.2657 24.284C87.7937 24.956 88.5297 25.292 89.4737 25.292C90.4177 25.292 91.1457 24.956 91.6577 24.284C92.1857 23.612 92.4497 22.668 92.4497 21.452ZM104.964 21.668H112.812V24.02H104.964V21.668ZM116.076 27.5H113.028L108.876 15.044L104.82 27.5H101.748L107.268 11.9H110.556L116.076 27.5ZM117.863 15.5H120.743V31.412H117.863V15.5ZM119.831 21.452C119.831 20.172 120.031 19.06 120.431 18.116C120.831 17.172 121.391 16.444 122.111 15.932C122.831 15.404 123.671 15.14 124.631 15.14C125.639 15.14 126.519 15.404 127.271 15.932C128.039 16.444 128.631 17.172 129.047 18.116C129.463 19.06 129.671 20.172 129.671 21.452C129.671 22.716 129.463 23.828 129.047 24.788C128.631 25.732 128.039 26.476 127.271 27.02C126.519 27.548 125.639 27.812 124.631 27.812C123.671 27.812 122.831 27.548 122.111 27.02C121.391 26.476 120.831 25.732 120.431 24.788C120.031 23.828 119.831 22.716 119.831 21.452ZM126.719 21.452C126.719 20.252 126.455 19.324 125.927 18.668C125.415 17.996 124.687 17.66 123.743 17.66C122.799 17.66 122.063 17.996 121.535 18.668C121.007 19.324 120.743 20.252 120.743 21.452C120.743 22.668 121.007 23.612 121.535 24.284C122.063 24.956 122.799 25.292 123.743 25.292C124.687 25.292 125.415 24.956 125.927 24.284C126.455 23.612 126.719 22.668 126.719 21.452ZM131.785 15.5H134.665V31.412H131.785V15.5ZM133.753 21.452C133.753 20.172 133.953 19.06 134.353 18.116C134.753 17.172 135.313 16.444 136.033 15.932C136.753 15.404 137.593 15.14 138.553 15.14C139.561 15.14 140.441 15.404 141.193 15.932C141.961 16.444 142.553 17.172 142.969 18.116C143.385 19.06 143.593 20.172 143.593 21.452C143.593 22.716 143.385 23.828 142.969 24.788C142.553 25.732 141.961 26.476 141.193 27.02C140.441 27.548 139.561 27.812 138.553 27.812C137.593 27.812 136.753 27.548 136.033 27.02C135.313 26.476 134.753 25.732 134.353 24.788C133.953 23.828 133.753 22.716 133.753 21.452ZM140.641 21.452C140.641 20.252 140.377 19.324 139.849 18.668C139.337 17.996 138.609 17.66 137.665 17.66C136.721 17.66 135.985 17.996 135.457 18.668C134.929 19.324 134.665 20.252 134.665 21.452C134.665 22.668 134.929 23.612 135.457 24.284C135.985 24.956 136.721 25.292 137.665 25.292C138.609 25.292 139.337 24.956 139.849 24.284C140.377 23.612 140.641 22.668 140.641 21.452Z" fill="white"/>
</svg>
